<mxfile host="app.diagrams.net" modified="2023-01-22T10:15:26.299Z" agent="5.0 (Windows NT 10.0; Win64; x64) AppleWebKit/537.36 (KHTML, like Gecko) Chrome/109.0.0.0 Safari/537.36" etag="Ba66pS9C4lMSRTGLtlQe" version="20.8.10" type="github">
  <diagram name="Page-1" id="K0ZhHVk0T3LD5cG8qgdt">
    <mxGraphModel dx="1050" dy="558" grid="1" gridSize="10" guides="1" tooltips="1" connect="1" arrows="1" fold="1" page="1" pageScale="1" pageWidth="827" pageHeight="1169" math="0" shadow="0">
      <root>
        <mxCell id="0" />
        <mxCell id="1" parent="0" />
        <mxCell id="7hfB4UaGwrLLohRsHLp--7" value="S2" style="edgeStyle=orthogonalEdgeStyle;rounded=0;orthogonalLoop=1;jettySize=auto;html=1;entryX=0;entryY=0.5;entryDx=0;entryDy=0;" edge="1" parent="1" source="7hfB4UaGwrLLohRsHLp--1" target="7hfB4UaGwrLLohRsHLp--3">
          <mxGeometry x="-0.087" y="-15" relative="1" as="geometry">
            <mxPoint as="offset" />
          </mxGeometry>
        </mxCell>
        <mxCell id="7hfB4UaGwrLLohRsHLp--14" value="S1 (SBA Feed)" style="edgeStyle=orthogonalEdgeStyle;rounded=0;orthogonalLoop=1;jettySize=auto;html=1;entryX=0;entryY=0.5;entryDx=0;entryDy=0;" edge="1" parent="1" target="7hfB4UaGwrLLohRsHLp--1">
          <mxGeometry x="-0.2222" y="10" relative="1" as="geometry">
            <mxPoint x="230" y="110" as="targetPoint" />
            <mxPoint x="220" y="170" as="sourcePoint" />
            <Array as="points">
              <mxPoint x="220" y="170" />
            </Array>
            <mxPoint as="offset" />
          </mxGeometry>
        </mxCell>
        <mxCell id="7hfB4UaGwrLLohRsHLp--1" value="Dehydrogenation Reactor" style="rounded=1;whiteSpace=wrap;html=1;absoluteArcSize=1;arcSize=14;strokeWidth=2;" vertex="1" parent="1">
          <mxGeometry x="400" y="120" width="100" height="100" as="geometry" />
        </mxCell>
        <mxCell id="7hfB4UaGwrLLohRsHLp--9" value="S5" style="edgeStyle=orthogonalEdgeStyle;rounded=0;orthogonalLoop=1;jettySize=auto;html=1;entryX=1;entryY=0.5;entryDx=0;entryDy=0;exitX=0.5;exitY=0;exitDx=0;exitDy=0;" edge="1" parent="1" source="7hfB4UaGwrLLohRsHLp--2" target="7hfB4UaGwrLLohRsHLp--4">
          <mxGeometry x="0.125" y="-10" relative="1" as="geometry">
            <Array as="points">
              <mxPoint x="560" y="340" />
            </Array>
            <mxPoint as="offset" />
          </mxGeometry>
        </mxCell>
        <mxCell id="7hfB4UaGwrLLohRsHLp--10" value="S6" style="edgeStyle=orthogonalEdgeStyle;rounded=0;orthogonalLoop=1;jettySize=auto;html=1;" edge="1" parent="1" source="7hfB4UaGwrLLohRsHLp--2">
          <mxGeometry x="0.3333" y="20" relative="1" as="geometry">
            <mxPoint x="560" y="550" as="targetPoint" />
            <mxPoint as="offset" />
          </mxGeometry>
        </mxCell>
        <mxCell id="7hfB4UaGwrLLohRsHLp--2" value="Distillation Column&lt;br&gt;I" style="rounded=1;whiteSpace=wrap;html=1;absoluteArcSize=1;arcSize=14;strokeWidth=2;" vertex="1" parent="1">
          <mxGeometry x="510" y="390" width="100" height="100" as="geometry" />
        </mxCell>
        <mxCell id="7hfB4UaGwrLLohRsHLp--6" value="S3 &lt;br&gt;(H₂)&lt;br&gt;" style="edgeStyle=orthogonalEdgeStyle;rounded=0;orthogonalLoop=1;jettySize=auto;html=1;" edge="1" parent="1" source="7hfB4UaGwrLLohRsHLp--3">
          <mxGeometry y="-10" relative="1" as="geometry">
            <mxPoint x="700" y="140" as="targetPoint" />
            <mxPoint as="offset" />
          </mxGeometry>
        </mxCell>
        <mxCell id="7hfB4UaGwrLLohRsHLp--8" value="S4" style="edgeStyle=orthogonalEdgeStyle;rounded=0;orthogonalLoop=1;jettySize=auto;html=1;entryX=1;entryY=0.5;entryDx=0;entryDy=0;exitX=0.5;exitY=1;exitDx=0;exitDy=0;" edge="1" parent="1" source="7hfB4UaGwrLLohRsHLp--3" target="7hfB4UaGwrLLohRsHLp--2">
          <mxGeometry x="-0.0435" y="10" relative="1" as="geometry">
            <mxPoint as="offset" />
          </mxGeometry>
        </mxCell>
        <mxCell id="7hfB4UaGwrLLohRsHLp--3" value="Condensor" style="rounded=1;whiteSpace=wrap;html=1;absoluteArcSize=1;arcSize=14;strokeWidth=2;" vertex="1" parent="1">
          <mxGeometry x="650" y="200" width="100" height="100" as="geometry" />
        </mxCell>
        <mxCell id="7hfB4UaGwrLLohRsHLp--11" value="S7&lt;br&gt;(MEK)" style="edgeStyle=orthogonalEdgeStyle;rounded=0;orthogonalLoop=1;jettySize=auto;html=1;exitX=0.5;exitY=0;exitDx=0;exitDy=0;" edge="1" parent="1" source="7hfB4UaGwrLLohRsHLp--4">
          <mxGeometry x="0.1667" y="-20" relative="1" as="geometry">
            <mxPoint x="310" y="260" as="targetPoint" />
            <Array as="points">
              <mxPoint x="400" y="260" />
            </Array>
            <mxPoint as="offset" />
          </mxGeometry>
        </mxCell>
        <mxCell id="7hfB4UaGwrLLohRsHLp--12" value="S8" style="edgeStyle=orthogonalEdgeStyle;rounded=0;orthogonalLoop=1;jettySize=auto;html=1;entryX=1;entryY=0.75;entryDx=0;entryDy=0;exitX=0.5;exitY=1;exitDx=0;exitDy=0;" edge="1" parent="1" source="7hfB4UaGwrLLohRsHLp--4" target="7hfB4UaGwrLLohRsHLp--5">
          <mxGeometry x="0.0244" y="-15" relative="1" as="geometry">
            <mxPoint as="offset" />
          </mxGeometry>
        </mxCell>
        <mxCell id="7hfB4UaGwrLLohRsHLp--4" value="Distillation Column&lt;br&gt;II" style="rounded=1;whiteSpace=wrap;html=1;absoluteArcSize=1;arcSize=14;strokeWidth=2;" vertex="1" parent="1">
          <mxGeometry x="350" y="290" width="100" height="100" as="geometry" />
        </mxCell>
        <mxCell id="7hfB4UaGwrLLohRsHLp--13" value="S9" style="edgeStyle=orthogonalEdgeStyle;rounded=0;orthogonalLoop=1;jettySize=auto;html=1;" edge="1" parent="1" source="7hfB4UaGwrLLohRsHLp--5">
          <mxGeometry y="-10" relative="1" as="geometry">
            <mxPoint x="180" y="290" as="targetPoint" />
            <mxPoint as="offset" />
          </mxGeometry>
        </mxCell>
        <mxCell id="7hfB4UaGwrLLohRsHLp--15" value="S10" style="edgeStyle=orthogonalEdgeStyle;rounded=0;orthogonalLoop=1;jettySize=auto;html=1;exitX=0.5;exitY=1;exitDx=0;exitDy=0;" edge="1" parent="1" source="7hfB4UaGwrLLohRsHLp--5">
          <mxGeometry x="0.2222" y="10" relative="1" as="geometry">
            <mxPoint x="290" y="520" as="targetPoint" />
            <Array as="points">
              <mxPoint x="180" y="520" />
            </Array>
            <mxPoint as="offset" />
          </mxGeometry>
        </mxCell>
        <mxCell id="7hfB4UaGwrLLohRsHLp--5" value="SBA-H₂O&lt;br&gt;Separator" style="rounded=1;whiteSpace=wrap;html=1;absoluteArcSize=1;arcSize=14;strokeWidth=2;" vertex="1" parent="1">
          <mxGeometry x="130" y="350" width="100" height="100" as="geometry" />
        </mxCell>
      </root>
    </mxGraphModel>
  </diagram>
</mxfile>
